<?xml version="1.0" encoding="UTF-8"?>
<svg width="67px" height="71px" viewBox="0 0 67 71" version="1.1" xmlns="http://www.w3.org/2000/svg" xmlns:xlink="http://www.w3.org/1999/xlink">
    <!-- Generator: Sketch 63.1 (92452) - https://sketch.com -->
    <title>Group 2</title>
    <desc>Created with Sketch.</desc>
    <g id="Page-1" stroke="none" stroke-width="1" fill="none" fill-rule="evenodd">
        <g id="Group-2" fill="#000000">
            <path d="M33.4728261,0 L0,14.2358656 L0,55.6054012 L33.076087,70.8317078 L33.4945652,71 L67,55.5833301 L67,54.9129201 L66.951087,14.0537789 L33.4728261,0 Z M2.07065217,54.2507869 L2.07065217,15.6346221 L33.5,2.27608316 L64.9293478,15.6346221 L64.9293478,54.2507869 L33.5,68.721158 L2.07065217,54.2507869 Z" id="Fill-3"></path>
            <path d="M0,15.3404173 L33.1529972,71 L66,15.8551281 L65.461125,15.1198269 L33.158413,30.9015708 L0.603864933,15 L0,15.3404173 Z M64.1829894,16.8981666 L33.1529972,69.0228566 L2.15008411,16.9063366 L33.158413,32.0535428 L64.1829894,16.8981666 Z" id="Fill-4"></path>
            <polygon id="Fill-5" points="32.9285 69 34.0715 69 34.0715 31 32.9285 31"></polygon>
            <path d="M0,56 L33.5176681,41.2432324 L67,55.9780242 L33.5122317,1 L0,56 Z M33.5176681,3.03001698 L64.3035823,53.4892618 L33.5176681,40.0812606 L2.66651791,53.5277195 L33.5176681,3.03001698 Z" id="Fill-6"></path>
            <polygon id="Fill-7" points="32.9285 40 34.0715 40 34.0715 2 32.9285 2"></polygon>
        </g>
    </g>
</svg>